<svg width="148.296875px" height="148.4px" xmlns="http://www.w3.org/2000/svg" viewBox="175.8515625 0.7999999999999972 148.296875 148.4" style="background: rgba(0, 0, 0, 0);" preserveAspectRatio="xMidYMid"><defs><filter id="editing-extrude-glow"><feFlood flood-color="#333333" result="flood-1"></feFlood><feMorphology operator="erode" radius="1" in="SourceAlpha" result="erode"></feMorphology><feComposite operator="in" in="flood-1" in2="erode" result="comp1"></feComposite><feConvolveMatrix order="3,3" divisor="1" in="comp1" result="convolve" kernelMatrix="0 0 0 1 1 1 0 0 0"></feConvolveMatrix><feOffset dx="-3" dy="0" in="convolve" result="extrude"></feOffset><feComposite operator="in" in="flood-1" in2="extrude" result="comp-extrude"></feComposite><feFlood flood-color="#000000" result="flood-2"></feFlood><feComposite operator="in" in="flood-2" in2="SourceAlpha" result="comp2"></feComposite><feMorphology operator="dilate" radius="1" in="comp2" result="dilate"></feMorphology><feOffset dx="-4.5" dy="0" in="dilate" result="offset"></feOffset><feGaussianBlur in="offset" stdDeviation="5.8" result="blur"></feGaussianBlur><feComponentTransfer in="blur" result="shadow"><feFuncA type="linear" slope="0.8" intercept="-0.2"></feFuncA></feComponentTransfer><feMerge><feMergeNode in="shadow"></feMergeNode><feMergeNode in="comp-extrude"></feMergeNode><feMergeNode in="SourceGraphic"></feMergeNode></feMerge></filter></defs><g filter="url(#editing-extrude-glow)"><g transform="translate(202.83001589775085, 101.14500045776367)"><path d="M36.16-11.01L35.58-10.43L35.20-10.62L35.20-10.62Q32.51-11.33 29.50-11.52L29.50-11.52L29.50-11.52Q26.50-11.71 23.36-12.35L23.36-12.35L23.36-12.35Q26.43-11.71 29.38-11.36L29.38-11.36L29.38-11.36Q32.32-11.01 35.20-10.05L35.20-10.05L35.20-10.05Q34.30-9.47 33.28-9.47L33.28-9.47L33.28-9.47Q32.06-9.60 30.88-9.86L30.88-9.86L30.88-9.86Q29.70-10.11 28.35-10.24L28.35-10.24L28.35-10.24Q28.35-10.62 28.54-10.82L28.54-10.82L28.54-10.82Q26.69-10.82 24.86-11.20L24.86-11.20L24.86-11.20Q23.04-11.58 21.31-12.06L21.31-12.06L21.31-12.06Q19.58-12.54 17.95-12.96L17.95-12.96L17.95-12.96Q16.32-13.38 14.91-13.38L14.91-13.38L14.91-13.38Q14.91-13.18 14.85-13.18L14.85-13.18L14.85-13.18Q16.51-12.86 17.98-12.29L17.98-12.29L17.98-12.29Q19.46-11.71 21.31-11.39L21.31-11.39L21.31-11.39Q23.10-10.94 24.80-10.75L24.80-10.75L24.80-10.75Q26.50-10.56 28.16-10.24L28.16-10.24L28.16-10.24Q25.47-10.50 22.69-11.01L22.69-11.01L22.69-11.01Q19.90-11.52 17.22-12.16L17.22-12.16L14.21-12.93L14.21-12.93Q12.61-8.83 10.98-4.90L10.98-4.90L10.98-4.90Q9.34-0.96 7.81 3.07L7.81 3.07L7.81 3.07Q7.68 2.82 7.39 2.78L7.39 2.78L7.39 2.78Q7.10 2.75 6.82 2.75L6.82 2.75L6.82 2.75Q6.53 2.75 6.27 2.59L6.27 2.59L6.27 2.59Q6.02 2.43 6.02 1.92L6.02 1.92L6.02 1.92Q6.02 1.41 6.27 0.48L6.27 0.48L6.27 0.48Q6.53-0.45 7.23-1.98L7.23-1.98L7.23-1.98Q7.10-2.11 6.82-2.14L6.82-2.14L6.82-2.14Q6.53-2.18 6.40-2.18L6.40-2.18L6.40-2.18Q5.12 0.51 3.94 1.95L3.94 1.95L3.94 1.95Q2.75 3.39 2.05 3.39L2.05 3.39L2.05 3.39Q1.28 3.39 1.28 1.92L1.28 1.92L1.28 1.92Q1.28 0.70 1.73-1.18L1.73-1.18L1.73-1.18Q2.18-3.07 2.85-5.25L2.85-5.25L2.85-5.25Q3.52-7.42 4.35-9.76L4.35-9.76L4.35-9.76Q5.18-12.10 5.95-14.34L5.95-14.34L5.95-14.34Q5.25-14.78 4.45-14.98L4.45-14.98L4.45-14.98Q3.65-15.17 2.69-15.30L2.69-15.30L2.69-15.30Q2.88-15.55 2.88-15.94L2.88-15.94L2.88-15.94Q2.88-16.32 2.94-16.70L2.94-16.70L2.94-16.70Q3.01-17.09 3.20-17.34L3.20-17.34L3.20-17.34Q3.39-17.60 3.90-17.60L3.90-17.60L3.90-17.60Q4.03-17.60 4.67-17.47L4.67-17.47L4.67-18.05L4.67-18.05Q3.65-18.56 3.10-19.26L3.10-19.26L3.10-19.26Q2.56-19.97 2.56-20.67L2.56-20.67L2.56-20.67Q2.56-22.21 5.50-22.21L5.50-22.21L5.50-22.21Q6.34-22.21 7.20-22.11L7.20-22.11L7.20-22.11Q8.06-22.02 8.96-21.89L8.96-21.89L11.90-28.61L11.90-28.61Q12.86-30.78 13.98-33.09L13.98-33.09L13.98-33.09Q15.10-35.39 16.64-37.63L16.64-37.63L16.64-37.63Q18.18-39.87 20.13-41.89L20.13-41.89L20.13-41.89Q22.08-43.90 24.64-45.50L24.64-45.50L25.60-45.89L25.60-45.89Q27.39-45.44 28.51-45.15L28.51-45.15L28.51-45.15Q29.63-44.86 30.34-44.74L30.34-44.74L30.34-44.74Q30.98-44.48 31.36-44.42L31.36-44.42L31.30-44.42L31.36-44.22L31.36-44.22Q31.36-44.16 31.30-44.10L31.30-44.10L32.06-42.75L32.06-42.75Q36.22-35.78 39.10-28.29L39.10-28.29L39.10-28.29Q41.98-20.80 44.03-13.57L44.03-13.57L44.03-13.57Q44.54-11.97 45.28-10.14L45.28-10.14L45.28-10.14Q46.02-8.32 46.69-6.69L46.69-6.69L46.69-6.69Q47.36-5.06 47.81-3.74L47.81-3.74L47.81-3.74Q48.26-2.43 48.26-1.86L48.26-1.86L48.26-1.86Q48.26-1.41 48.06-1.31L48.06-1.31L48.06-1.31Q47.87-1.22 47.55-1.22L47.55-1.22L47.55-1.22Q45.89-5.38 44.42-9.41L44.42-9.41L44.42-9.41Q42.94-13.38 41.54-17.41L41.54-17.41L41.54-17.41Q42.82-13.38 44.22-9.41L44.22-9.41L44.22-9.41Q45.70-5.38 47.17-1.22L47.17-1.22L46.72-1.22L46.72-1.22Q46.34-1.22 46.21-0.83L46.21-0.83L46.21-0.83Q46.34-0.70 46.53-0.16L46.53-0.16L46.53-0.16Q46.72 0.38 46.91 0.99L46.91 0.99L46.91 0.99Q47.10 1.60 47.23 2.24L47.23 2.24L47.23 2.24Q47.36 2.88 47.36 3.20L47.36 3.20L47.36 3.20Q47.36 4.61 46.53 4.61L46.53 4.61L46.53 4.61Q46.08 4.61 45.82 4.42L45.82 4.42L45.82 4.42Q45.57 4.22 45.25 3.90L45.25 3.90L44.61 3.26L44.61 3.26Q44.22 2.88 43.65 2.50L43.65 2.50L37.50-15.17L37.50-15.17Q38.85-11.01 40.16-6.85L40.16-6.85L40.16-6.85Q41.47-2.69 42.88 1.34L42.88 1.34L42.88 1.34Q41.86 0.13 40.99-1.60L40.99-1.60L40.99-1.60Q40.13-3.33 39.39-5.25L39.39-5.25L39.39-5.25Q38.66-7.17 38.02-9.18L38.02-9.18L38.02-9.18Q37.38-11.20 36.74-12.99L36.74-12.99L36.74-12.99Q36.74-12.86 36.77-12.77L36.77-12.77L36.77-12.77Q36.80-12.67 36.80-12.54L36.80-12.54L36.80-12.54Q36.80-11.52 36.16-11.01L36.16-11.01ZM36.48-13.70L35.20-17.09L35.20-17.09Q35.33-17.09 35.58-17.18L35.58-17.18L35.58-17.18Q35.84-17.28 35.97-17.28L35.97-17.28L35.97-17.28Q33.86-22.59 31.78-27.58L31.78-27.58L31.78-27.58Q29.70-32.58 27.20-37.18L27.20-37.18L26.82-36.80L27.78-35.07L27.78-35.07Q30.02-30.98 31.81-26.62L31.81-26.62L31.81-26.62Q33.60-22.27 35.20-17.66L35.20-17.66L35.20-17.66Q33.34-22.66 31.20-27.62L31.20-27.62L31.20-27.62Q29.06-32.58 26.62-36.61L26.62-36.61L26.37-36.48L26.37-36.48Q24.19-34.24 22.30-31.10L22.30-31.10L22.30-31.10Q20.42-27.97 18.75-24.70L18.75-24.70L17.09-20.67L18.18-20.42L18.18-20.42Q19.14-20.16 20.06-19.87L20.06-19.87L20.06-19.87Q20.99-19.58 21.70-19.26L21.70-19.26L21.70-19.26Q23.10-18.56 25.41-18.18L25.41-18.18L25.41-18.18Q27.71-17.79 29.92-17.44L29.92-17.44L29.92-17.44Q32.13-17.09 33.76-16.67L33.76-16.67L33.76-16.67Q35.39-16.26 35.39-15.49L35.39-15.49L27.58-16.38L27.58-16.38Q28.29-16.26 29.31-16.10L29.31-16.10L29.31-16.10Q30.34-15.94 31.39-15.74L31.39-15.74L31.39-15.74Q32.45-15.55 33.47-15.39L33.47-15.39L33.47-15.39Q34.50-15.23 35.20-15.10L35.20-15.10L35.20-15.10Q35.20-14.91 35.17-14.75L35.17-14.75L35.17-14.75Q35.14-14.59 35.14-14.46L35.14-14.46L35.14-14.46Q35.14-14.34 35.30-14.30L35.30-14.30L35.30-14.30Q35.46-14.27 35.68-14.24L35.68-14.24L35.68-14.24Q35.90-14.21 36.10-14.08L36.10-14.08L36.10-14.08Q36.29-14.02 36.48-13.70L36.48-13.70ZM21.31-30.78L21.31-30.78L21.31-30.78Q21.44-30.78 21.41-30.62L21.41-30.62L21.41-30.62Q21.38-30.46 21.44-30.46L21.44-30.46L21.44-30.46Q21.57-30.46 22.21-31.36L22.21-31.36L22.21-31.36Q22.85-32.26 23.68-33.41L23.68-33.41L23.68-33.41Q24.51-34.56 25.28-35.58L25.28-35.58L25.28-35.58Q26.05-36.61 26.37-36.93L26.37-36.93L26.05-37.38L26.05-37.38Q24.70-36.10 23.55-34.37L23.55-34.37L23.55-34.37Q22.40-32.64 21.31-30.78ZM27.84-37.70L27.78-37.70L27.78-37.70Q29.82-34.24 31.55-30.46L31.55-30.46L31.55-30.46Q33.22-26.75 34.69-23.04L34.69-23.04L34.69-23.04Q33.47-26.75 31.74-30.46L31.74-30.46L31.74-30.46Q29.95-34.24 27.84-37.70L27.84-37.70ZM37.57-28.10L37.57-28.10L37.57-28.10Q39.55-22.98 41.47-17.66L41.47-17.66L41.47-17.66Q39.68-22.85 37.70-27.90L37.70-27.90L37.70-27.90Q35.84-32.90 33.41-37.95L33.41-37.95L33.41-37.95Q35.71-33.09 37.57-28.10ZM28.42-39.42L28.16-39.10L28.16-39.10Q28.99-38.91 29.31-38.72L29.31-38.72L29.31-38.72Q29.63-38.53 29.76-38.53L29.76-38.53L29.82-38.72L29.82-38.72Q29.89-38.72 29.57-38.78L29.57-38.78L29.57-38.78Q29.25-38.85 29.06-38.91L29.06-38.91L29.18-39.17L28.42-39.42ZM24.90-39.87L25.02-39.74L25.54-38.40L25.47-39.74L25.47-39.74Q25.34-39.74 25.18-39.81L25.18-39.81L25.18-39.81Q25.02-39.87 24.90-39.87L24.90-39.87ZM27.01-37.44L26.69-37.89L26.24-37.57L26.62-37.06L27.01-37.44ZM27.33-38.40L27.58-38.02L27.65-38.02L27.33-38.46L27.33-38.40ZM49.54-4.29L49.54-4.29L49.54-4.29Q49.54-4.67 49.98-4.99L49.98-4.99L49.98-4.99Q50.43-5.31 51.04-5.57L51.04-5.57L51.04-5.57Q51.65-5.82 52.26-6.02L52.26-6.02L52.26-6.02Q52.86-6.21 53.18-6.34L53.18-6.34L53.18-6.34Q56.26-5.95 59.33-5.70L59.33-5.70L59.33-5.70Q62.40-5.44 65.47-5.44L65.47-5.44L65.47-5.44Q66.62-5.44 68.67-5.47L68.67-5.47L68.67-5.47Q70.72-5.50 73.15-5.70L73.15-5.70L73.15-5.70Q75.58-5.89 78.08-6.30L78.08-6.30L78.08-6.30Q80.58-6.72 82.62-7.49L82.62-7.49L82.62-7.49Q84.67-8.26 85.95-9.41L85.95-9.41L85.95-9.41Q87.23-10.56 87.23-12.29L87.23-12.29L87.23-12.29Q87.23-13.70 86.62-14.82L86.62-14.82L86.62-14.82Q86.02-15.94 85.02-16.80L85.02-16.80L85.02-16.80Q84.03-17.66 82.82-18.24L82.82-18.24L82.82-18.24Q82.37-18.50 81.86-18.69L81.86-18.69L81.86-18.69Q82.37-18.43 82.82-18.18L82.82-18.18L82.82-18.18Q83.97-17.54 84.90-16.61L84.90-16.61L84.90-16.61Q85.82-15.68 86.40-14.56L86.40-14.56L86.40-14.56Q86.98-13.44 86.98-12.03L86.98-12.03L86.98-12.03Q86.98-10.50 85.86-9.44L85.86-9.44L85.86-9.44Q84.74-8.38 82.98-7.68L82.98-7.68L82.98-7.68Q81.22-6.98 79.07-6.59L79.07-6.59L79.07-6.59Q76.93-6.21 74.82-6.02L74.82-6.02L74.82-6.02Q72.70-5.82 70.91-5.79L70.91-5.79L70.91-5.79Q69.12-5.76 68.10-5.76L68.10-5.76L68.10-5.76Q64.83-5.76 61.54-5.98L61.54-5.98L61.54-5.98Q58.24-6.21 54.98-6.53L54.98-6.53L54.98-6.53Q56.13-6.85 57.31-7.01L57.31-7.01L57.31-7.01Q58.50-7.17 59.71-7.17L59.71-7.17L59.71-7.17Q61.76-7.17 63.74-7.14L63.74-7.14L63.74-7.14Q65.73-7.10 67.71-7.10L67.71-7.10L67.71-7.10Q70.08-7.10 72.38-7.20L72.38-7.20L72.38-7.20Q74.69-7.30 77.12-7.68L77.12-7.68L77.31-6.91L77.31-6.91Q78.27-7.10 79.74-7.52L79.74-7.52L79.74-7.52Q81.22-7.94 82.59-8.58L82.59-8.58L82.59-8.58Q83.97-9.22 84.96-10.18L84.96-10.18L84.96-10.18Q85.95-11.14 85.95-12.42L85.95-12.42L85.95-12.42Q85.95-14.27 84.61-15.68L84.61-15.68L84.61-15.68Q83.26-17.09 81.18-18.21L81.18-18.21L81.18-18.21Q79.10-19.33 76.48-20.16L76.48-20.16L76.48-20.16Q73.86-20.99 71.33-21.63L71.33-21.63L71.33-21.63Q68.80-22.27 66.56-22.78L66.56-22.78L66.56-22.78Q64.32-23.30 62.98-23.74L62.98-23.74L62.98-23.36L62.98-23.36Q64.32-22.85 66.50-22.30L66.50-22.30L66.50-22.30Q68.67-21.76 71.20-21.12L71.20-21.12L71.20-21.12Q73.73-20.48 76.29-19.68L76.29-19.68L76.29-19.68Q78.85-18.88 80.93-17.79L80.93-17.79L80.93-17.79Q83.01-16.70 84.32-15.30L84.32-15.30L84.32-15.30Q85.63-13.89 85.63-12.10L85.63-12.10L85.63-12.10Q85.63-11.07 84.67-10.30L84.67-10.30L84.67-10.30Q83.71-9.54 82.40-8.99L82.40-8.99L82.40-8.99Q81.09-8.45 79.74-8.13L79.74-8.13L79.74-8.13Q78.40-7.81 77.70-7.68L77.70-7.68L77.70-7.68Q78.53-7.87 79.84-8.22L79.84-8.22L79.84-8.22Q81.15-8.58 82.40-9.15L82.40-9.15L82.40-9.15Q83.65-9.73 84.54-10.53L84.54-10.53L84.54-10.53Q85.44-11.33 85.44-12.42L85.44-12.42L85.44-12.42Q85.44-14.21 84.03-15.42L84.03-15.42L84.03-15.42Q82.62-16.64 80.32-17.60L80.32-17.60L80.32-17.60Q78.02-18.56 75.07-19.33L75.07-19.33L75.07-19.33Q72.13-20.10 69.02-20.99L69.02-20.99L69.02-20.99Q65.92-21.89 62.98-23.04L62.98-23.04L62.98-23.04Q60.03-24.19 57.73-25.92L57.73-25.92L57.73-25.92Q55.42-27.65 54.02-30.02L54.02-30.02L54.02-30.02Q52.61-32.38 52.61-35.71L52.61-35.71L52.61-35.71Q52.61-38.98 54.18-41.25L54.18-41.25L54.18-41.25Q55.74-43.52 58.21-44.96L58.21-44.96L58.21-44.96Q60.67-46.40 63.62-47.04L63.62-47.04L63.62-47.04Q66.56-47.68 69.31-47.68L69.31-47.68L69.31-47.68Q73.34-47.68 77.22-46.53L77.22-46.53L77.22-46.53Q81.09-45.38 84.54-43.33L84.54-43.33L84.54-43.33Q84.16-43.20 84.10-42.98L84.10-42.98L84.10-42.98Q84.03-42.75 84-42.50L84-42.50L84-42.50Q83.97-42.24 83.87-42.05L83.87-42.05L83.87-42.05Q83.78-41.86 83.46-41.86L83.46-41.86L83.46-41.86Q83.20-41.86 82.46-42.08L82.46-42.08L82.46-42.08Q81.73-42.30 80.90-42.59L80.90-42.59L80.90-42.59Q80.06-42.88 79.30-43.14L79.30-43.14L79.30-43.14Q78.53-43.39 78.27-43.52L78.27-43.52L78.08-42.94L78.08-42.94Q78.66-42.69 79.58-42.21L79.58-42.21L79.58-42.21Q80.51-41.73 81.38-41.06L81.38-41.06L81.38-41.06Q82.24-40.38 82.85-39.62L82.85-39.62L82.85-39.62Q83.46-38.85 83.46-38.08L83.46-38.08L83.46-38.08Q83.46-37.25 82.69-37.25L82.69-37.25L82.69-37.25Q81.73-37.25 80.42-37.76L80.42-37.76L80.42-37.76Q79.10-38.27 77.50-38.88L77.50-38.88L77.50-38.88Q75.90-39.49 74.08-40L74.08-40L74.08-40Q72.26-40.51 70.40-40.51L70.40-40.51L70.40-40.51Q69.18-40.51 67.55-40.29L67.55-40.29L67.55-40.29Q65.92-40.06 64.42-39.46L64.42-39.46L64.42-39.46Q62.91-38.85 61.89-37.79L61.89-37.79L61.89-37.79Q60.86-36.74 60.86-35.14L60.86-35.14L60.86-35.14Q60.86-33.66 62.24-32.64L62.24-32.64L62.24-32.64Q63.62-31.62 65.89-30.78L65.89-30.78L65.89-30.78Q68.16-29.95 71.04-29.18L71.04-29.18L71.04-29.18Q73.92-28.42 76.96-27.49L76.96-27.49L76.96-27.49Q80-26.56 82.88-25.34L82.88-25.34L82.88-25.34Q85.76-24.13 88.03-22.40L88.03-22.40L88.03-22.40Q90.30-20.67 91.68-18.30L91.68-18.30L91.68-18.30Q93.06-15.94 93.06-12.74L93.06-12.74L93.06-12.74Q93.06-9.60 91.78-7.42L91.78-7.42L91.78-7.42Q90.50-5.25 88.38-3.81L88.38-3.81L88.38-3.81Q86.27-2.37 83.58-1.57L83.58-1.57L83.58-1.57Q80.90-0.77 78.05-0.35L78.05-0.35L78.05-0.35Q75.20 0.06 72.42 0.16L72.42 0.16L72.42 0.16Q69.63 0.26 67.39 0.26L67.39 0.26L60.99 0.26L60.99 0.26Q60.42 0.26 59.42 0.22L59.42 0.22L59.42 0.22Q58.43 0.19 57.47 0.10L57.47 0.10L57.47 0.10Q56.51 0 55.81-0.26L55.81-0.26L55.81-0.26Q55.10-0.51 55.10-0.90L55.10-0.90L55.17-1.22L55.17-1.22Q57.79-1.09 60.35-0.99L60.35-0.99L60.35-0.99Q62.91-0.90 65.54-0.90L65.54-0.90L65.54-0.90Q67.97-0.90 70.40-0.90L70.40-0.90L70.40-0.90Q72.58-0.96 74.75-1.15L74.75-1.15L74.75-1.15Q73.66-1.09 72.58-1.02L72.58-1.02L72.58-1.02Q71.23-1.02 69.95-1.02L69.95-1.02L67.39-1.02L67.39-1.02Q61.38-1.02 55.55-1.41L55.55-1.41L55.55-1.41Q55.68-1.92 55.68-2.11L55.68-2.11L55.68-2.11Q55.68-2.37 55.55-2.62L55.55-2.62L55.55-2.62Q55.42-2.62 55.20-2.59L55.20-2.59L55.20-2.59Q54.98-2.56 54.66-2.56L54.66-2.56L54.66-2.56Q53.95-2.56 53.09-2.62L53.09-2.62L53.09-2.62Q52.22-2.69 51.42-2.88L51.42-2.88L51.42-2.88Q50.62-3.07 50.08-3.42L50.08-3.42L50.08-3.42Q49.54-3.78 49.54-4.29ZM88.83-5.95L88.83-5.95L88.83-5.95Q87.74-4.99 86.53-4.35L86.53-4.35L86.53-4.35Q85.44-3.78 84.29-3.26L84.29-3.26L84.29-3.26Q85.44-3.65 86.53-4.16L86.53-4.16L86.53-4.16Q87.74-4.67 88.83-5.95Z" fill="#eb6c6c"></path></g></g><style>text {
  font-size: 64px;
  font-family: Arial Black;
  dominant-baseline: central;
  text-anchor: middle;
}</style></svg>