<svg width="83" height="113" viewBox="0 0 83 113" fill="none" xmlns="http://www.w3.org/2000/svg">
<path d="M62.925 24.9749C62.938 24.6488 63.0329 24.3312 63.201 24.0514C64.2163 22.3608 66.8131 23.0806 66.8131 25.0527V89.734C66.8131 91.5226 65.3632 92.9724 63.5747 92.9724C61.7353 92.9724 60.2653 91.4424 60.3388 89.6046L62.925 24.9749Z" stroke="#E2E8F0" stroke-width="10"/>
<path d="M14.6849 90.1248L63.4302 23.4915C64.4726 22.0667 66.7291 22.8039 66.7291 24.5693C66.7291 24.922 66.6269 25.2671 66.435 25.563L36.1284 72.2681L21.4949 94.8197C20.7331 95.9937 19.4295 96.703 18.03 96.7049C14.6406 96.7097 12.6838 92.8603 14.6849 90.1248Z" stroke="#F1F5F9" stroke-width="10"/>
</svg>
